# xmcd
#
# Track frame offsets:
#	150
#	3975
#	25492
#	54657
#	76705
#	95505
#	113877
#	129475
#	153212
#	160560
#	177202
#	197637
#	212595
#	232792
#	241077
#	244207
#	252920
#	262750
#
# Disc length: 3685 seconds
#
# Revision: 2
# Processed by: cddbd v1.5.1PL0 Copyright (c) Steve Scherf et al.
# Submitted via: CDmax 2.0
#
DISCID=d30e6312
DTITLE=LAGUNABLÈ - $CHEI E PAURA? MAI 'VÙI!
DYEAR=1997
DGENRE=Blues
TTITLE0=FERROVIA, SAN MARCO, LIDO, TUTTE LE FERMATE
TTITLE1=L'ISOLA DEL CANARO
TTITLE2=PUMA IN CONDOMINIO
TTITLE3=AMORE NATO MALE, FINITO PEGGIO
TTITLE4=CREW SLUT
TTITLE5=AQUA ALTA
TTITLE6=SCHEI E PAURA? MAI 'VÙI!
TTITLE7=ODE ALLA SOLITUDINE
TTITLE8=OMELIA DOLCINIANA
TTITLE9=FRÀ DOLCIÑO DA TESSERA
TTITLE10=FIAPO COME 'NA CANOCIA
TTITLE11=HOMO MESTREPOLITANUS
TTITLE12=MAZZORATO MAN
TTITLE13=INTERLUDIO TANGENZIALE
TTITLE14=COLLEGAMENTO CON ICE G
TTITLE15=INNO DI PIAZZA FERRETTO
TTITLE16=LA CUCARACHA (LA PAROLACHA DEL VAPORETO)
TTITLE17=VECIO GONDOLIER
EXTD=
EXTT0=
EXTT1=
EXTT2=
EXTT3=
EXTT4=
EXTT5=
EXTT6=
EXTT7=
EXTT8=
EXTT9=
EXTT10=
EXTT11=
EXTT12=
EXTT13=
EXTT14=
EXTT15=
EXTT16=
EXTT17=
PLAYORDER=
